<?xml version="1.0" standalone="no"?><!DOCTYPE svg PUBLIC "-//W3C//DTD SVG 1.1//EN" "http://www.w3.org/Graphics/SVG/1.1/DTD/svg11.dtd"><svg t="1730771570360" class="icon" viewBox="0 0 1024 1024" version="1.1" xmlns="http://www.w3.org/2000/svg" p-id="5506" xmlns:xlink="http://www.w3.org/1999/xlink" width="200" height="200"><path d="M42.666667 896h170.666666V384H42.666667v512z m938.666666-469.333333c0-46.933333-38.4-85.333333-85.333333-85.333334h-268.8l42.666667-196.266666v-12.8c0-17.066667-8.533333-34.133333-17.066667-46.933334l-46.933333-42.666666-281.6 281.6c-17.066667 12.8-25.6 34.133333-25.6 59.733333v426.666667c0 46.933333 38.4 85.333333 85.333333 85.333333h384c34.133333 0 64-21.333333 76.8-51.2l128-302.933333c4.266667-8.533333 4.266667-21.333333 4.266667-29.866667v-85.333333h4.266666c0 4.266667 0 0 0 0z" p-id="5507"></path></svg>